<svg xmlns="http://www.w3.org/2000/svg" viewBox="0 0 330 104.55">
    <path fill="#FFFFFF" d="M5.7 91.16c2.93 0 4.86 1.44 4.86 4.24s-1.94 4.22-4.86 4.22H3.15v4.69H0V91.16h5.7zm-2.56 5.7h2.62c1.08 0 1.82-.44 1.82-1.44s-.74-1.41-1.82-1.41H3.13v2.85zM20.35 91.16c2.91 0 4.86 1.41 4.86 4.2 0 1.92-.91 3.17-2.43 3.76l3.1 5.19h-3.57l-2.7-4.77h-1.67v4.77h-3.15V91.16h5.57zm-2.43 5.7h2.49c1.06 0 1.8-.44 1.8-1.44s-.74-1.41-1.8-1.41h-2.49v2.85zM32.95 91.16v13.15h-3.17V91.16h3.17zM39.35 100.16c.95.93 2.09 1.54 3.74 1.54s2.32-.55 2.32-1.41c0-.76-.55-.99-1.18-1.18-.85-.25-2.41-.57-3.72-1.08-1.54-.61-2.56-1.46-2.56-3.17 0-2.26 1.79-3.84 5.03-3.84 2.68 0 4.31 1.08 5.15 2.09l-2.22 1.92c-.8-.76-1.77-1.2-3.13-1.2-1.06 0-1.79.27-1.79.89 0 .53.49.76.99.93 1.06.36 2.62.59 3.82 1.04 1.44.55 2.68 1.54 2.68 3.57 0 2.75-2.26 4.18-5.59 4.18-2.83 0-4.79-1.04-5.89-2.37l2.36-1.92zM55.88 91.16l3.53 7.69 3.53-7.69h3.08v13.15h-3.15v-5.98L60 104.31h-1.35l-2.87-6.06v6.06h-3.15V91.16h3.25zM83.79 91.16c2.91 0 4.86 1.41 4.86 4.2 0 1.92-.91 3.17-2.43 3.76l3.1 5.19h-3.57l-2.7-4.77h-1.67v4.77h-3.15V91.16h5.57zm-2.43 5.7h2.49c1.06 0 1.8-.44 1.8-1.44s-.74-1.41-1.8-1.41h-2.49v2.85zM100.26 91.16l4.79 13.15h-3.34l-.78-2.32h-4.67l-.76 2.32h-3.34l4.75-13.15h3.36zm-3.08 8.05h2.79l-1.41-4.16-1.39 4.16zM109.53 91.16l2.72 5.51 2.74-5.51h3.5l-4.71 8.66v4.48h-3.13v-4.5l-4.73-8.64h3.63zM141.26 97.75c0 4.46-2.55 6.8-6.12 6.8s-6.08-2.34-6.08-6.8 2.53-6.84 6.08-6.84 6.12 2.36 6.12 6.84zm-9.04 0c0 2.6 1.12 3.89 2.93 3.89s2.96-1.29 2.96-3.89-1.16-3.91-2.96-3.91-2.93 1.31-2.93 3.91zM149.11 91.16l4.48 7.28v-7.28h3.15v13.15h-2.87l-4.77-7.26v7.26h-3.15V91.16h3.15zM164.77 91.16v10.22h6.06v2.93h-9.21V91.16h3.15zM177.93 91.16v13.15h-3.17V91.16h3.17zM186.16 91.16l4.48 7.28v-7.28h3.15v13.15h-2.87l-4.77-7.26v7.26H183V91.16h3.15zM207.5 91.16v2.93h-5.68v2.11h3.93v2.81h-3.93v2.38h5.81v2.93h-8.97V91.17h8.83zM220.72 100.16c.95.93 2.09 1.54 3.74 1.54s2.32-.55 2.32-1.41c0-.76-.55-.99-1.18-1.18-.85-.25-2.41-.57-3.72-1.08-1.54-.61-2.56-1.46-2.56-3.17 0-2.26 1.79-3.84 5.03-3.84 2.68 0 4.31 1.08 5.15 2.09l-2.22 1.92c-.8-.76-1.77-1.2-3.13-1.2-1.06 0-1.79.27-1.79.89 0 .53.49.76.99.93 1.06.36 2.62.59 3.82 1.04 1.44.55 2.68 1.54 2.68 3.57 0 2.75-2.26 4.18-5.58 4.18-2.83 0-4.79-1.04-5.89-2.37l2.36-1.92zM242.83 91.16v2.93h-5.68v2.11h3.93v2.81h-3.93v2.38h5.81v2.93h-8.97V91.17h8.83zM252.96 91.16c2.91 0 4.86 1.41 4.86 4.2 0 1.92-.91 3.17-2.43 3.76l3.1 5.19h-3.57l-2.7-4.77h-1.67v4.77h-3.15V91.16h5.57zm-2.43 5.7h2.49c1.06 0 1.8-.44 1.8-1.44s-.74-1.41-1.8-1.41h-2.49v2.85zM263.98 91.16l3.04 9.02 3.02-9.02h3.42l-4.77 13.15h-3.36l-4.77-13.15h3.42zM280.36 91.16v13.15h-3.17V91.16h3.17zM294.13 95.53c-.68-1.04-1.44-1.69-2.83-1.69-1.96 0-3.08 1.29-3.08 3.91s1.12 3.89 3.08 3.89c1.25 0 2.01-.51 2.75-1.54l2.32 1.69c-1.18 1.86-2.89 2.75-5.07 2.75-3.57 0-6.25-2.34-6.25-6.82s2.66-6.82 6.27-6.82c2.58 0 4.22 1.22 5.11 2.91l-2.3 1.71zM309.66 91.16v2.93h-5.68v2.11h3.93v2.81h-3.93v2.38h5.81v2.93h-8.97V91.17h8.83zM315.55 100.16c.95.93 2.09 1.54 3.74 1.54s2.32-.55 2.32-1.41c0-.76-.55-.99-1.18-1.18-.85-.25-2.41-.57-3.72-1.08-1.54-.61-2.57-1.46-2.57-3.17 0-2.26 1.79-3.84 5.04-3.84 2.68 0 4.31 1.08 5.15 2.09l-2.22 1.92c-.8-.76-1.77-1.2-3.13-1.2-1.06 0-1.79.27-1.79.89 0 .53.49.76.99.93 1.06.36 2.62.59 3.82 1.04 1.44.55 2.68 1.54 2.68 3.57 0 2.75-2.26 4.18-5.58 4.18-2.83 0-4.79-1.04-5.89-2.37l2.36-1.92zM298.71 74.36c-12.85 0-24.22-4.54-30.52-12.15l9.3-7.42c.55-.44 1.32-.4 1.84.07 5.39 4.79 12.21 7.22 20.32 7.22 6.67 0 15.54-.95 15.54-9.13 0-5.69-3.97-7.98-19.31-11.1-15.79-3.28-24.93-7.77-24.93-20.99C270.95 8.76 282.61.3 299.29.3c10.76 0 19.44 3.01 27.17 9.43.66.55.66 1.58 0 2.15l-8.99 7.81c-5.67-4.92-11.64-7.22-18.77-7.22-12.02 0-12.95 5.93-12.95 7.75 0 5.72 4.81 7.27 17.54 9.94 13.51 2.83 26.7 6.84 26.7 21.74s-11.11 22.46-31.29 22.46z"/>
    <g>
        <path fill="#FFFFFF" d="M229.4 31.24l-17.78 30.79V37.97l8.25-4.76-.02-.03 22.54-13.02c-.75-1.48-1.59-2.9-2.52-4.26l-9.91 5.72-20.84 12.03-20.84-12.03h19.17l24.43-14.1A36.484 36.484 0 00209.63 0c-20.26 0-36.68 16.42-36.68 36.68 0 5.09 1.04 9.95 2.92 14.36l18.3-10.57-8.38-14.52 20.84 12.03v24.06l-10.26-17.77-18.53 10.7c6.33 10.99 18.2 18.4 31.79 18.4 20.26 0 36.68-16.42 36.68-36.68 0-4.84-.95-9.45-2.65-13.68l-14.28 8.24z"/>
        <path fill="#FFFFFF" d="M223.78 21.63L238 13.42c-1.1-1.34-2.3-2.61-3.58-3.78l-20.77 11.99h10.13z"/>
    </g>
    <path fill="#FFFFFF" d="M33.08 2.37c16.77 0 27.94 8.38 27.94 24.7S49.85 51.66 33.08 51.66H14.32c-.78 0-1.42.63-1.42 1.42V72.3H0V3.79c0-.78.64-1.42 1.42-1.42h31.66zM12.91 38.76h21.05c8.19 0 13.74-3.66 13.74-11.6s-5.55-11.34-13.74-11.34H14.32c-.78 0-1.42.63-1.42 1.42v21.52zM154 71.13L135.26 49.1c8.14-3.74 13.03-11.04 13.03-21.85v-.05c0-16.51-11.38-24.81-28.34-24.81H88.36c-.78 0-1.42.63-1.42 1.42v68.48h12.9V53.47c0-.78.63-1.42 1.42-1.42h20.1c.21-.01.41.08.54.24l16.71 20h14.84c.6 0 .93-.71.54-1.17zm-54.16-32.4V17.12c0-.78.63-1.42 1.42-1.42h20.93c6.4 0 12.38 3.49 12.38 11.51s-5.98 11.51-12.38 11.51H99.84z"/>
</svg>